HIERARCHY
ROOT Hips
{
	OFFSET 0.000000 0.000000 0.000000
	CHANNELS 6 Xposition Yposition Zposition Zrotation Yrotation Xrotation 
	JOINT LHipJoint
	{
		OFFSET 0.000000 0.000000 0.000000
		CHANNELS 3 Zrotation Yrotation Xrotation
		JOINT LeftUpLeg
		{
			OFFSET 1.363060 -1.794630 0.839290
			CHANNELS 3 Zrotation Yrotation Xrotation
			JOINT LeftLeg
			{
				OFFSET 2.448110 -6.726130 0.000000
				CHANNELS 3 Zrotation Yrotation Xrotation
				JOINT LeftFoot
				{
					OFFSET 2.562200 -7.039590 0.000000
					CHANNELS 3 Zrotation Yrotation Xrotation
					JOINT LeftToeBase
					{
						OFFSET 0.157640 -0.433110 2.322550
						CHANNELS 3 Zrotation Yrotation Xrotation
						End Site
						{
							OFFSET 0.000000 0.000000 0.000000
						}
					}
				}
			}
		}
	}
	JOINT RHipJoint
	{
		OFFSET 0.000000 0.000000 0.000000
		CHANNELS 3 Zrotation Yrotation Xrotation
		JOINT RightUpLeg
		{
			OFFSET -1.305520 -1.794630 0.839290
			CHANNELS 3 Zrotation Yrotation Xrotation
			JOINT RightLeg
			{
				OFFSET -2.542530 -6.985550 0.000000
				CHANNELS 3 Zrotation Yrotation Xrotation
				JOINT RightFoot
				{
					OFFSET -2.568260 -7.056230 0.000000
					CHANNELS 3 Zrotation Yrotation Xrotation
					JOINT RightToeBase
					{
						OFFSET -0.164730 -0.452590 2.363150
						CHANNELS 3 Zrotation Yrotation Xrotation
						End Site
						{
							OFFSET 0.000000 0.000000 0.000000
						}
					}
				}
			}
		}
	}
	JOINT LowerBack
	{
		OFFSET 0.000000 0.000000 0.000000
		CHANNELS 3 Zrotation Yrotation Xrotation
		JOINT Spine
		{
			OFFSET 0.028270 2.035590 -0.193380
			CHANNELS 3 Zrotation Yrotation Xrotation
			JOINT Spine1
			{
				OFFSET 0.056720 2.048850 -0.042750
				CHANNELS 3 Zrotation Yrotation Xrotation
				JOINT Neck
				{
					OFFSET 0.000000 0.000000 0.000000
					CHANNELS 3 Zrotation Yrotation Xrotation
					JOINT Neck1
					{
						OFFSET -0.054170 1.746240 0.172020
						CHANNELS 3 Zrotation Yrotation Xrotation
						JOINT Head
						{
							OFFSET 0.104070 1.761360 -0.123970
							CHANNELS 3 Zrotation Yrotation Xrotation
							End Site
							{
								OFFSET 0.000000 0.000000 0.000000
							}
						}
					}
				}
				JOINT LeftShoulder
				{
					OFFSET 0.000000 0.000000 0.000000
					CHANNELS 3 Zrotation Yrotation Xrotation
					JOINT LeftArm
					{
						OFFSET 3.362410 1.200890 -0.311210
						CHANNELS 3 Zrotation Yrotation Xrotation
						JOINT LeftForeArm
						{
							OFFSET 4.983000 -0.000000 -0.000000
							CHANNELS 3 Zrotation Yrotation Xrotation
							JOINT LeftHand
							{
								OFFSET 3.483560 -0.000000 -0.000000
								CHANNELS 3 Zrotation Yrotation Xrotation
								JOINT LeftFingerBase
								{
									OFFSET 0.000000 0.000000 0.000000
									CHANNELS 3 Zrotation Yrotation Xrotation
									JOINT LeftHandIndex1
									{
										OFFSET 0.715260 -0.000000 -0.000000
										CHANNELS 3 Zrotation Yrotation Xrotation
										End Site
										{
											OFFSET 0.000000 0.000000 0.000000
										}
									}
								}
								JOINT LThumb
								{
									OFFSET 0.000000 0.000000 0.000000
									CHANNELS 3 Zrotation Yrotation Xrotation
									End Site
									{
										OFFSET 0.000000 0.000000 0.000000
									}
								}
							}
						}
					}
				}
				JOINT RightShoulder
				{
					OFFSET 0.000000 0.000000 0.000000
					CHANNELS 3 Zrotation Yrotation Xrotation
					JOINT RightArm
					{
						OFFSET -3.136600 1.374050 -0.404650
						CHANNELS 3 Zrotation Yrotation Xrotation
						JOINT RightForeArm
						{
							OFFSET -5.241900 -0.000000 -0.000000
							CHANNELS 3 Zrotation Yrotation Xrotation
							JOINT RightHand
							{
								OFFSET -3.444170 -0.000000 -0.000000
								CHANNELS 3 Zrotation Yrotation Xrotation
								JOINT RightFingerBase
								{
									OFFSET 0.000000 0.000000 0.000000
									CHANNELS 3 Zrotation Yrotation Xrotation
									JOINT RightHandIndex1
									{
										OFFSET -0.622530 -0.000000 -0.000000
										CHANNELS 3 Zrotation Yrotation Xrotation
										End Site
										{
											OFFSET 0.000000 0.000000 0.000000
										}
									}
								}
								JOINT RThumb
								{
									OFFSET 0.000000 0.000000 0.000000
									CHANNELS 3 Zrotation Yrotation Xrotation
									End Site
									{
										OFFSET 0.000000 0.000000 0.000000
									}
								}
							}
						}
					}
				}
			}
		}
	}
}
MOTION
Frames: 7
Frame Time: 0.008333
0.856182 17.789924 -15.870136 -6.822550 3.823879 3.170159 1.422196 0.365060 0.023918 -10.180741 -6.547450 -22.898573 7.705299 16.598301 53.249140 0.948905 -4.016705 -7.178532 0.100600 2.045500 5.631400 -3.725561 -0.741434 -1.175466 35.876181 3.046541 -4.374854 -1.343927 -7.423224 21.567323 -0.185795 -2.287817 -11.536183 -0.511600 -4.584600 12.727400 7.092303 -0.337725 5.165851 1.990142 -0.071781 -1.750829 2.865445 -0.352481 -0.675499 -3.492734 -0.282082 -13.122788 4.261629 -0.025723 12.589098 0.721400 0.046100 8.341600 1.352408 4.439244 -0.776118 -89.724232 6.567806 27.401855 24.868572 -36.981339 -8.295519 0.425601 -0.133572 1.866572 3.138843 42.610163 1.840300 -7.125000 0.000000 0.000000 -46.823400 67.077400 -27.236600 -0.017317 -4.711516 -1.566139 84.395543 1.638003 -13.424259 -7.518139 13.903157 -0.678157 0.903654 0.225964 3.715213 -13.944589 13.590070 -3.472200 7.125000 0.000000 0.000000 8.606800 -16.394500 5.895100 
0.862702 17.775253 -15.774065 -6.418663 3.612392 3.257562 1.405162 0.329376 -0.005308 -10.716700 -6.880973 -23.583652 7.440680 16.456282 52.393815 0.882823 -3.361996 -7.560652 0.060300 1.584000 4.357200 -3.713159 -0.718571 -1.186081 35.523769 3.506801 -3.898028 -1.348996 -7.435493 21.626333 -0.174764 -2.552445 -11.934671 -0.502200 -4.543000 12.609600 6.562883 -0.319292 5.036627 1.982534 -0.102036 -1.654027 3.126086 -0.373790 -0.256296 -3.471074 -0.410116 -13.983909 3.939475 -0.125319 12.707439 0.571900 -0.033100 8.587800 1.344464 4.440266 -0.775591 -90.086944 5.836120 27.179942 24.875594 -37.007054 -8.298784 0.425670 -0.136443 2.233904 2.926463 43.010518 1.708000 -7.125000 0.000000 0.000000 -47.736300 67.277700 -28.070100 -0.016797 -4.719899 -1.578077 84.253671 2.406733 -12.893065 -7.634272 14.119394 -0.694935 0.924886 0.232377 3.624310 -14.385044 13.909678 -3.666800 7.125000 0.000000 0.000000 8.289800 -16.044800 5.736700 
0.863212 17.765779 -15.671474 -6.866341 3.506939 3.144897 1.403161 0.317423 -0.003994 -10.196156 -7.154815 -24.132413 7.228635 16.308304 51.624421 0.974460 -3.748110 -8.053006 0.128700 2.312800 6.371100 -3.711612 -0.708939 -1.180087 36.118798 3.536643 -3.326491 -1.322643 -7.391171 21.509590 -0.144116 -2.826755 -12.055968 -0.445200 -4.280900 11.868200 7.089137 -0.334147 5.232633 1.963905 -0.058004 -1.770966 2.810740 -0.346634 -0.726937 -3.702616 -0.445697 -13.461405 4.506977 -0.195524 12.810189 0.861500 -0.021800 8.520300 1.330638 4.444339 -0.790842 -89.825684 6.101236 27.338325 25.033014 -37.138477 -8.392819 0.424973 -0.135437 1.978665 3.127809 42.643185 1.834200 -7.125000 0.000000 0.000000 -46.893600 67.097000 -27.304400 -0.043843 -4.671437 -1.574483 84.532710 1.994717 -12.454967 -7.794301 14.439592 -0.752215 0.914572 0.222054 3.018880 -13.938707 14.128577 -3.615400 7.125000 0.000000 0.000000 8.600300 -15.833900 5.996200 
0.858831 17.750293 -15.573569 -6.572544 3.609452 3.065536 1.393539 0.297260 -0.013921 -10.594284 -7.574239 -24.556955 6.955997 16.138547 50.718863 0.903521 -3.129638 -8.304828 0.075500 1.772400 4.877100 -3.681309 -0.694580 -1.194635 35.889921 3.379018 -2.790190 -1.310928 -7.352623 21.427028 -0.154253 -2.927680 -12.433399 -0.444000 -4.275500 11.853100 6.701302 -0.256003 5.175112 1.868968 0.021213 -1.775471 2.720430 -0.303154 -0.705933 -3.377549 -0.547523 -13.398793 4.466960 -0.416866 12.818036 0.748100 -0.102600 8.515100 1.334374 4.443618 -0.799049 -89.379310 6.260918 28.191848 25.546959 -37.658828 -8.704235 0.424111 -0.128570 1.903444 2.657197 43.391743 1.536000 -7.125000 0.000000 0.000000 -48.665800 67.440200 -28.887700 -0.053766 -4.675710 -1.570870 84.781051 2.040736 -11.877074 -7.947074 14.722242 -0.785985 0.929234 0.236228 2.239629 -14.221131 14.428814 -3.768700 7.125000 0.000000 0.000000 8.396200 -15.510600 5.909800 
0.863925 17.745913 -15.478925 -6.447925 3.682544 2.975966 1.375598 0.279428 -0.012044 -10.800578 -8.036381 -25.074739 6.685940 15.961582 49.796248 0.880820 -2.787748 -8.700106 0.027000 1.061500 2.917900 -3.661386 -0.683416 -1.201008 35.763934 3.085139 -2.309500 -1.285814 -7.269966 21.217023 -0.183138 -2.833719 -12.672459 -0.514100 -4.595800 12.759200 6.611854 -0.367351 5.466288 1.859521 -0.090273 -1.857353 2.739156 -0.355777 -1.099611 -3.551905 -0.365075 -13.085397 4.336288 -0.122610 12.942929 0.769200 0.009300 8.505600 1.339382 4.415770 -0.802427 -89.439507 6.547191 28.374210 25.999857 -38.096554 -8.997996 0.420930 -0.127132 1.801790 2.798293 42.671057 1.613800 -7.125000 0.000000 0.000000 -47.230400 67.009800 -27.447300 -0.066365 -4.649235 -1.584871 84.709300 1.850867 -11.220054 -8.134128 15.054464 -0.853425 0.902542 0.272986 1.772963 -14.244858 13.791847 -3.594900 7.125000 0.000000 0.000000 8.395700 -16.185700 5.785800 
0.857099 17.728491 -15.389374 -6.939969 4.131006 3.026641 1.367261 0.250104 -0.040146 -10.199125 -8.629620 -25.771379 6.421580 15.779405 48.855793 0.878727 -2.608089 -9.000371 0.041000 1.306400 3.592300 -3.676574 -0.681691 -1.201544 36.492197 3.051348 -2.042391 -1.255149 -7.245179 21.132256 -0.106529 -3.473061 -12.893277 -0.423300 -4.175900 11.572000 7.056762 -0.573178 5.374519 1.918825 -0.358930 -1.831378 2.633295 -0.490893 -0.898382 -3.283014 -0.265613 -13.786734 4.277840 -0.015474 13.081316 0.710000 0.072800 8.723800 1.336167 4.413652 -0.815073 -89.531800 6.068105 28.042067 25.948535 -38.052334 -8.968357 0.422219 -0.131392 1.775629 3.393132 42.393439 2.007400 -7.125000 0.000000 0.000000 -46.199500 67.010000 -26.743000 -0.052199 -4.649227 -1.594127 84.872569 2.442201 -10.742661 -8.196230 15.180228 -0.864343 0.922998 0.242051 1.201419 -13.985838 14.657927 -3.769000 7.125000 0.000000 0.000000 8.558400 -15.284700 6.068700 
0.849153 17.717489 -15.295035 -6.707333 4.121759 3.124800 1.350549 0.224737 -0.046908 -10.394844 -9.036239 -26.382302 6.109495 15.548311 47.745452 0.874983 -2.521057 -9.089815 0.007500 0.559600 1.537800 -3.668074 -0.661683 -1.197064 36.406675 3.383091 -1.520057 -1.211653 -7.144090 20.855133 -0.062085 -3.936071 -13.232992 -0.485800 -4.469200 12.400700 6.634241 -0.537934 5.305888 1.909778 -0.337245 -1.897874 2.867343 -0.476714 -1.100302 -3.574388 -0.367208 -13.187651 4.473323 -0.123477 13.083882 0.829000 0.023700 8.585400 1.342984 4.416815 -0.805189 -89.553836 5.959726 28.357510 25.905579 -38.015253 -8.956174 0.420043 -0.131711 2.296213 3.121361 41.677679 1.798900 -7.125000 0.000000 0.000000 -45.223300 66.433400 -25.514300 -0.068544 -4.627237 -1.592748 84.803639 2.240013 -10.350035 -8.375076 15.509680 -0.918829 0.920282 0.256564 0.838667 -14.068470 14.627964 -3.780400 7.125000 0.000000 0.000000 8.503000 -15.317800 6.022300 
